<?xml version="1.0" encoding="iso-8859-1"?>
<!-- Uploaded to: SVG Repo, www.svgrepo.com, Generator: SVG Repo Mixer Tools -->
<svg height="800px" width="800px" version="1.1" id="Layer_1" xmlns="http://www.w3.org/2000/svg" xmlns:xlink="http://www.w3.org/1999/xlink" 
	 viewBox="0 0 512 512" xml:space="preserve">
<path style="fill:#4D2564;" d="M344.314,123.196h40.1C376.502,53.753,322.028,0,256,0l-22.505,25.319L256,50.637
	C299.742,50.637,336.181,81.839,344.314,123.196z"/>
<path style="fill:#763C8D;" d="M256,50.637V0c-66.029,0-120.502,53.753-128.414,123.196h40.1
	C175.819,81.839,212.259,50.637,256,50.637z"/>
<path style="fill:#9E52B6;" d="M256,0c49.718,0,90.022,40.304,90.022,90.022c0,177.119-143.584,320.703-320.703,320.703
	l22.505,50.637L25.319,512c205.086,0,371.341-166.255,371.341-371.341C396.659,62.975,333.684,0,256,0z"/>
<path style="fill:#B175C8;" d="M486.681,410.725c-177.119,0-320.703-143.584-320.703-320.703C165.978,40.304,206.282,0,256,0
	c-77.684,0-140.659,62.975-140.659,140.659C115.341,345.745,281.596,512,486.681,512l-22.505-50.637L486.681,410.725z"/>
</svg>