<svg width="24" height="24" viewBox="0 0 24 24" fill="none" xmlns="http://www.w3.org/2000/svg">
<path d="M18.0169 22.4091L17.9665 22.4775H15.515C16.0355 22.2381 17.2109 21.7762 17.9833 21.913L18.0169 22.4091Z" fill="#A0A3A4"/>
<path d="M19.1418 20.8011L17.9833 20.9208V21.9301C17.2109 21.7761 16.0355 22.2551 15.515 22.4946H15.0112C15.6025 21.9749 16.1527 21.4086 16.6568 20.8011L17.8489 20.7668C17.8489 20.7668 18.0168 19.2102 18.4366 18.5773C18.8564 17.9443 19.7799 17.5509 20.5691 17.7391C20.2146 18.8139 19.7355 19.8419 19.1418 20.8011V20.8011Z" fill="#FA7819"/>
<path d="M18.3023 22.0327L18.0001 22.409V21.913C18.1066 21.9357 18.2087 21.9762 18.3023 22.0327Z" fill="#FA7819"/>
<path d="M19.1419 20.8011C18.8848 21.2273 18.6045 21.6385 18.3023 22.0327C18.2025 21.9803 18.0946 21.9456 17.9833 21.9301L17.9497 20.9721C17.9497 20.9495 17.9586 20.9277 17.9743 20.9117C17.99 20.8956 18.0114 20.8866 18.0337 20.8866L19.1419 20.8011Z" fill="#0741AF"/>
<path d="M20.8378 16.8324C20.7706 17.1404 20.6867 17.4312 20.5859 17.722C19.7967 17.5338 18.8396 17.9444 18.4534 18.5602C18.0673 19.176 17.9497 20.3905 17.9161 20.7156C17.9161 20.7382 17.9073 20.76 17.8915 20.776C17.8758 20.7921 17.8544 20.8011 17.8322 20.8011H16.6568C18.1246 19.0614 19.0742 16.9308 19.3937 14.66C19.6288 14.5573 19.8975 14.5231 20.099 14.7113C20.3005 14.8995 20.3676 15.5324 20.4348 15.9429C20.4927 16.2095 20.5949 16.4641 20.737 16.6956L20.8378 16.8324Z" fill="#0741AF"/>
<path d="M21.1232 14.2837C21.1367 15.1423 21.0408 15.9991 20.8378 16.8325L20.737 16.6786C20.5949 16.4471 20.4927 16.1925 20.4348 15.9259C20.3676 15.5153 20.4516 15.0022 20.099 14.6943C19.7464 14.3863 19.6288 14.5574 19.3937 14.6429C19.4273 14.4548 19.4441 14.2666 19.4609 14.0784L21.1232 14.2837Z" fill="#FA7819"/>
<path d="M19.4944 13.6678C19.5811 12.1735 19.4164 10.6751 19.0075 9.23731V9.23731L19.0411 8.6557C19.4527 9.17089 19.8127 9.72676 20.1157 10.315C20.1275 10.3944 20.1275 10.4751 20.1157 10.5545C20.1157 10.9137 20.1157 11.2729 20.1157 11.6322C20.1157 11.9914 20.1829 11.7861 20.3004 11.7861L20.6027 11.8374C20.6362 11.8374 20.7202 11.8375 20.737 11.8717C20.7538 11.9059 20.7706 11.9914 20.7874 12.0256C20.8042 12.0598 20.9049 12.4533 20.9385 12.6757C20.4855 13.0473 20.0024 13.3792 19.4944 13.6678V13.6678Z" fill="#0741AF"/>
<path d="M19.041 8.63861L19.0075 9.22022C18.9094 8.87148 18.7916 8.52879 18.6548 8.19385L19.041 8.63861Z" fill="#FA7819"/>
<path d="M20.737 11.8546L20.1661 11.769C20.1157 11.7519 20.1157 11.7177 20.1157 11.6664C20.1157 11.2102 20.1157 10.7598 20.1157 10.315C20.2458 10.5596 20.3635 10.8108 20.4683 11.0677L20.6195 11.4611C20.6486 11.5951 20.6879 11.7267 20.737 11.8546V11.8546Z" fill="#FF7F1B"/>
<path d="M8.8825 22.5973L8.27802 24H7.47205L8.8825 22.5973Z" fill="#0741AF"/>
<path d="M11.6698 21.6735C10.8638 22.4433 9.97391 23.2986 9.31906 24H8.2948L8.89928 22.5973L9.82279 21.6735H11.6698Z" fill="#A0A3A4"/>
<path d="M12.8787 20.5616L11.6698 21.6735H9.82275C10.8974 20.6129 11.9888 19.5353 12.291 19.2787L12.7108 18.9194L12.8787 20.5616Z" fill="#FF7F1B"/>
<path d="M15.2295 18.3207C14.8059 18.8072 14.3455 19.259 13.8526 19.6721L12.8787 20.5446L12.694 18.9024L13.4496 18.1839L15.2295 18.3207Z" fill="#0741AF"/>
<path d="M17.0597 15.3272C16.6333 16.4301 16.0131 17.4445 15.2295 18.3207L13.4496 18.201C14.2724 17.397 15.2967 16.2509 15.8676 15.0021L17.0597 15.3272Z" fill="#FF7F1B"/>
<path d="M17.4627 13.5823V13.6849C17.4168 14.2492 17.2866 14.8029 17.0765 15.3271L15.8843 15.0021C15.9787 14.7918 16.0573 14.5745 16.1194 14.3521C16.1866 14.1468 16.237 13.9415 16.2873 13.7191L17.4627 13.5823Z" fill="#A0A3A4"/>
<path d="M17.4627 13.5823L16.3041 13.702C16.4785 12.9978 16.5576 12.2727 16.5392 11.5466C16.8079 11.29 17.1101 10.9479 17.3956 10.64C17.5344 11.6144 17.557 12.6024 17.4627 13.5823V13.5823Z" fill="#0741AF"/>
<path d="M16.7239 8.31358C16.4281 8.38612 16.1524 8.52654 15.9179 8.72413C15.7275 8.2901 15.5029 7.87248 15.2463 7.47538V7.47538C15.3867 7.18659 15.5615 6.91655 15.7668 6.67139C16.1462 7.17985 16.4673 7.73082 16.7239 8.31358V8.31358Z" fill="#0741AF"/>
<path d="M15.7668 6.65433C15.5615 6.89949 15.3867 7.16953 15.2463 7.45832C14.882 6.88956 14.4659 6.35693 14.0038 5.86745C14.1136 5.61792 14.2428 5.37768 14.39 5.14899C14.9053 5.59403 15.3674 6.09928 15.7668 6.65433V6.65433Z" fill="#A0A3A4"/>
<path d="M14.3732 5.1661C14.226 5.39479 14.0968 5.63503 13.987 5.88456C12.9724 4.82998 11.8264 3.91555 10.5784 3.16467C11.9706 3.54417 13.2653 4.22704 14.3732 5.1661V5.1661Z" fill="#FF7F1B"/>
<path d="M10.1418 16.9693C9.26963 17.1813 8.38266 17.3243 7.48883 17.3969C8.22335 17.2403 8.94264 17.0171 9.63809 16.7298L10.1418 16.9693Z" fill="#A0A3A4"/>
<path d="M13.3153 15.3956C12.7108 16.0114 11.7034 16.593 10.1418 16.9865L9.63806 16.747C10.8134 16.268 12.1903 15.4811 13.0467 14.2837L13.3153 15.3956Z" fill="#FF7F1B"/>
<path d="M14.222 13.3599C14.1962 14.134 13.8701 14.8661 13.3153 15.3956L13.0466 14.2837C13.2238 14.0379 13.3757 13.7742 13.5 13.4968L14.222 13.3599Z" fill="#0741AF"/>
<path d="M14.222 13.36L13.5 13.4797C13.7527 12.9049 13.8733 12.2789 13.8526 11.6494C14.1158 12.1785 14.2429 12.7671 14.222 13.36Z" fill="#FF7F1B"/>
<path d="M3.64362 2.95935L3.42533 3.04488L2.51862 1.81323L3.64362 2.95935Z" fill="#FF7F1B"/>
<path d="M5.92727 5.26869L5.65861 6.10689L5.17167 5.43975L5.40675 5.23448L5.23884 5.0292L5.02055 5.23448L4.38249 4.37917L4.56719 4.22521L4.38249 4.01994L4.23137 4.15679L3.62689 3.31858L3.82838 3.14752L5.92727 5.26869Z" fill="#A0A3A4"/>
<path d="M9.65485 9.0492L9.33582 9.34001L8.05969 8.94657L8.17723 8.84393L7.99253 8.63866L7.70708 8.91235L7.16977 8.19389L7.42163 7.97151L7.23693 7.76624L7.01865 7.97151L6.53171 7.28727L6.7332 7.1162L6.5485 6.91093L6.3638 7.06489L5.80969 6.32932L6.02797 6.14115L5.84327 5.93588L5.65857 6.10694L5.92723 5.26874L6.5485 5.88456L7.08581 7.40701L8.07649 7.45833L9.65485 9.0492Z" fill="#FF7F1B"/>
<path d="M8.07651 7.45829L7.08584 7.40697L6.54852 5.88452L8.07651 7.45829Z" fill="#A0A3A4"/>
<path d="M9.33583 9.33998L8.52986 10.0413L7.85822 9.1347L8.05971 8.94653L9.33583 9.33998Z" fill="#0741AF"/>
<path d="M11.5859 6.46613C11.2079 6.22484 10.8436 5.96213 10.4945 5.67924C10.4105 5.47397 10.3266 5.2687 10.2258 5.08053L9.97396 4.60155L9.9068 4.48181C10.5344 5.05797 11.0874 5.71328 11.5523 6.43192L11.5859 6.46613Z" fill="#A0A3A4"/>
<path d="M11.9049 8.72414C11.7937 8.92316 11.6583 9.10709 11.5019 9.27154C11.3004 9.49392 11.0821 9.6992 10.8638 9.88736L10.4105 8.96363C10.7799 8.62151 11.1157 8.22806 11.0989 7.68067C11.0554 7.18204 10.9246 6.69538 10.7127 6.24375L10.6455 6.07269L10.4944 5.69635C10.8439 5.97339 11.2083 6.23039 11.5858 6.46613C11.828 6.80958 11.9994 7.19946 12.0896 7.61224C11.8983 7.94801 11.8327 8.34295 11.9049 8.72414V8.72414Z" fill="#0741AF"/>
<path d="M10.8807 9.88734L10.5281 10.1781L9.95715 9.40837H9.97394L10.4273 8.98071L10.8807 9.88734Z" fill="#FF7F1B"/>
<path d="M10.528 10.1782L10.4776 10.2124L9.92353 10.7085L8.46271 12.077L8.14368 11.1019L8.56345 10.7256L9.00002 10.3151L9.80599 9.56239L9.95711 9.42554L10.528 10.1782Z" fill="#0741AF"/>
<path d="M8.46274 12.077L8.41237 12.1112L7.4049 13.052L6.61572 12.5388L8.14371 11.1019L8.46274 12.077Z" fill="#FF7F1B"/>
<path d="M7.42165 13.052L5.87687 14.4718H5.86007L5.37313 14.9337L4.34888 14.7797C4.62814 14.3958 4.95555 14.0507 5.32276 13.7534L5.70895 13.4112L6.61567 12.5388L7.42165 13.052Z" fill="#0741AF"/>
<path d="M5.37315 14.9337C5.10802 15.187 4.87657 15.4745 4.68471 15.789C4.58326 15.9663 4.50428 16.156 4.44964 16.3535L4.1474 15.139C4.19509 15.0373 4.25127 14.94 4.31531 14.8481L4.36568 14.7797L5.37315 14.9337Z" fill="#A0A3A4"/>
<path d="M4.43283 17.3799C4.27357 17.2381 4.14393 17.065 4.05162 16.871C3.95932 16.6771 3.90623 16.4662 3.89552 16.2509C3.87474 15.8655 3.95593 15.4815 4.13059 15.139L4.43283 16.3536C4.33484 16.6884 4.33484 17.0451 4.43283 17.3799V17.3799Z" fill="#FF7F1B"/>
<path d="M12.1064 8.12543C12.0767 8.33613 12.0084 8.53925 11.9049 8.72415C11.8327 8.34295 11.8983 7.94801 12.0896 7.61224C12.1233 7.78114 12.129 7.95462 12.1064 8.12543V8.12543Z" fill="#A0A3A4"/>
<path d="M23.2389 14.3179L22.9199 14.4718C23.0806 15.6522 23.0806 16.8495 22.9199 18.0299L23.9777 18.5944C24.0806 17.1287 23.8268 15.6597 23.2389 14.3179V14.3179Z" fill="#FF7F1B"/>
<path d="M22.7184 13.2744C22.8129 13.6691 22.8857 14.0689 22.9367 14.4718L23.2557 14.3179C23.0977 13.9592 22.9183 13.6107 22.7184 13.2744Z" fill="#A0A3A4"/>
<path d="M20.4012 22.871H22.7016C23.0029 22.3571 23.2505 21.8124 23.4404 21.2459L21.6773 21.4341C21.3228 21.9738 20.8929 22.4578 20.4012 22.871V22.871Z" fill="#A0A3A4"/>
<path d="M22.6008 19.5181L23.9105 19.3471C23.9441 19.1076 23.9777 18.851 23.9945 18.5944L22.9367 18.0299C22.8643 18.5344 22.752 19.0321 22.6008 19.5181V19.5181Z" fill="#0741AF"/>
<path d="M21.6941 21.4341L23.4572 21.2459C23.6732 20.6298 23.8307 19.9939 23.9273 19.3471L22.6176 19.5182C22.4009 20.1983 22.0899 20.8435 21.6941 21.4341V21.4341Z" fill="#FA7819"/>
<path d="M21.1232 14.2837L19.4609 14.0784C19.4777 13.9415 19.4777 13.8047 19.4945 13.6678C20.003 13.3737 20.4861 13.0361 20.9385 12.6586C21.0518 13.1929 21.1137 13.7371 21.1232 14.2837V14.2837Z" fill="#A0A3A4"/>
<path d="M17.3956 10.64C17.1269 10.948 16.8079 11.2901 16.5392 11.5467C16.5145 10.5736 16.3035 9.61481 15.918 8.72415C16.1573 8.52423 16.439 8.38368 16.7407 8.3136C17.0579 9.0566 17.278 9.83874 17.3956 10.64V10.64Z" fill="#FF7F1B"/>
<path d="M11.4851 11.4612L10.6959 12.1625L10.3937 11.8204L11.0989 11.1703L11.4851 11.4612Z" fill="#0741AF"/>
<path opacity="0.5" d="M11.5523 11.3756L11.4851 11.4612L11.0989 11.1703L11.3172 10.9822L11.5523 11.3756Z" fill="black"/>
<path d="M11.737 11.2216L11.5523 11.3756L11.3172 10.9822L11.4347 10.8795L11.737 11.2216Z" fill="#FF7F1B"/>
<path d="M3.82834 3.14752L3.62685 3.31858L3.42535 3.04488L3.64364 2.95935H3.66043L3.82834 3.14752Z" fill="#0741AF"/>
</svg>
